<svg id="svg" version="1.1" xmlns="http://www.w3.org/2000/svg" xmlns:xlink="http://www.w3.org/1999/xlink" width="400" height="400" viewBox="0, 0, 400,400"><g id="svgg"><path id="path0" d="M184.375 39.777 C 183.086 40.088,176.797 41.198,170.401 42.243 C 76.798 57.528,17.598 157.353,47.195 250.000 C 84.017 365.265,233.737 398.507,317.202 309.948 C 402.577 219.362,355.626 69.331,233.594 42.777 C 223.404 40.560,189.646 38.502,184.375 39.777 M208.984 125.995 C 212.363 129.711,212.500 130.982,212.500 158.681 L 212.500 187.500 241.319 187.500 C 274.292 187.500,278.646 188.958,278.646 200.000 C 278.646 211.042,274.292 212.500,241.319 212.500 L 212.500 212.500 212.500 241.319 C 212.500 274.292,211.042 278.646,200.000 278.646 C 188.958 278.646,187.500 274.292,187.500 241.319 L 187.500 212.500 158.681 212.500 C 125.708 212.500,121.354 211.042,121.354 200.000 C 121.354 188.958,125.708 187.500,158.681 187.500 L 187.500 187.500 187.500 158.941 C 187.500 135.240,187.927 129.773,190.011 126.798 C 195.093 119.542,202.821 119.215,208.984 125.995 " stroke="none" fill="#000000" fill-rule="evenodd"></path></g></svg>